<?xml version="1.0" standalone="no"?>
<!DOCTYPE svg PUBLIC "-//W3C//DTD SVG 20010904//EN"
 "http://www.w3.org/TR/2001/REC-SVG-20010904/DTD/svg10.dtd">
<svg version="1.0" xmlns="http://www.w3.org/2000/svg"
 width="550.000000pt" height="550.000000pt" viewBox="0 0 550.000000 550.000000"
 preserveAspectRatio="xMidYMid meet">
<metadata>
Created by potrace 1.11, written by Peter Selinger 2001-2013
</metadata>
<g transform="translate(0.000000,550.000000) scale(0.100000,-0.100000)"
fill="#000000" stroke="none">
<path d="M4252 5445 c-62 -52 -202 -193 -202 -203 0 -6 10 -14 21 -17 17 -6
19 -9 8 -16 -12 -7 -11 -9 1 -9 15 0 50 -33 50 -47 0 -4 10 -16 23 -28 12 -11
18 -17 13 -12 -6 4 -15 7 -20 7 -6 0 4 -10 22 -22 18 -11 31 -26 28 -33 -2 -7
4 -15 15 -18 10 -3 19 -12 19 -21 0 -9 5 -16 10 -16 6 0 10 -8 10 -18 0 -10 9
-24 19 -32 11 -7 18 -17 15 -22 -3 -4 0 -8 7 -8 7 0 10 -3 6 -6 -3 -4 4 -15
16 -25 16 -13 18 -18 7 -19 -9 0 -3 -9 15 -21 17 -12 22 -19 13 -15 -10 3 -18
1 -18 -4 0 -6 7 -10 16 -10 8 0 12 -4 9 -10 -3 -5 -1 -10 5 -10 6 0 8 -4 5
-10 -3 -5 -1 -10 5 -10 7 0 9 -7 6 -16 -3 -8 -2 -12 4 -9 6 3 10 -3 10 -14 0
-12 6 -21 13 -21 8 0 7 -4 -3 -10 -13 -8 -12 -10 3 -10 10 0 15 -4 12 -10 -3
-5 -1 -10 5 -10 6 0 8 -4 5 -10 -3 -5 -1 -10 6 -10 6 0 9 -8 6 -20 -3 -11 -1
-18 3 -15 4 3 13 -9 19 -25 5 -17 7 -28 2 -26 -4 3 -8 -1 -8 -9 0 -8 2 -13 5
-10 9 9 34 -26 28 -40 -3 -8 0 -15 6 -15 7 0 7 -4 -1 -14 -10 -11 -8 -17 6
-24 10 -6 18 -14 18 -19 0 -4 4 -7 9 -5 5 2 4 -4 -4 -13 -11 -13 -10 -19 6
-37 11 -12 14 -18 7 -15 -8 5 -11 0 -10 -12 1 -14 5 -17 12 -11 9 7 12 -1 13
-28 3 -71 3 -73 15 -65 7 4 6 0 -2 -10 -10 -13 -10 -17 -1 -17 10 0 10 -3 0
-15 -11 -13 -8 -18 10 -17 3 0 5 -10 5 -23 0 -13 -4 -20 -10 -17 -5 3 -4 -2 4
-11 7 -9 10 -17 5 -17 -5 0 -2 -5 6 -11 12 -9 11 -10 -7 -6 -31 7 -29 -1 3
-13 20 -8 24 -13 15 -23 -8 -10 -7 -17 2 -27 9 -10 9 -11 0 -6 -7 4 -13 3 -13
-1 0 -5 6 -15 13 -22 10 -11 10 -13 0 -7 -16 9 -17 -6 -1 -22 7 -7 8 -12 2
-12 -5 0 -8 -29 -6 -66 1 -45 -1 -63 -9 -59 -6 4 -5 -3 3 -14 11 -18 11 -23
-2 -31 -11 -7 -11 -10 -2 -10 7 0 10 -4 7 -10 -3 -5 0 -10 7 -10 9 0 9 -3 2
-8 -12 -8 -34 -46 -34 -59 0 -4 7 1 15 11 8 11 15 15 15 9 0 -7 -5 -15 -10
-18 -6 -4 -8 -10 -5 -15 3 -5 0 -12 -6 -16 -8 -5 -9 -3 -4 6 5 9 4 11 -4 6 -9
-6 -9 -11 -1 -21 8 -10 7 -14 -2 -18 -10 -4 -9 -6 1 -6 11 -1 10 -5 -5 -17
-10 -8 -13 -13 -6 -9 19 10 14 -13 -5 -25 -13 -8 -14 -10 -3 -7 11 3 16 -2 18
-16 0 -13 -2 -17 -6 -10 -6 9 -11 6 -21 -8 -7 -12 -8 -18 -2 -14 16 9 13 -7
-6 -34 -9 -14 -11 -21 -5 -17 7 4 12 2 12 -3 0 -6 -5 -11 -11 -11 -8 0 -7 -6
2 -17 10 -11 10 -14 2 -9 -8 4 -13 1 -13 -9 0 -9 -4 -13 -10 -10 -5 3 -10 1
-10 -4 0 -6 6 -11 13 -11 9 0 8 -3 -2 -9 -11 -7 -11 -9 0 -14 10 -4 10 -6 -2
-6 -11 -1 -15 -9 -14 -26 2 -14 -2 -28 -7 -32 -7 -4 -8 -1 -3 7 5 9 4 11 -4 6
-9 -6 -9 -11 1 -24 8 -9 8 -13 2 -9 -13 8 -24 -13 -24 -44 0 -14 -4 -18 -12
-13 -9 5 -8 2 1 -9 12 -16 12 -17 -5 -10 -17 6 -18 5 -4 -12 9 -11 10 -16 3
-11 -12 7 -18 -11 -14 -37 1 -5 -3 -6 -8 -3 -5 3 -11 -1 -14 -8 -3 -8 -1 -17
6 -20 7 -2 4 -5 -6 -5 -11 -1 -15 -6 -11 -13 4 -6 0 -16 -8 -22 -8 -6 -16 -15
-18 -21 -7 -28 -13 -34 -24 -28 -6 4 -4 -2 4 -12 9 -11 10 -16 3 -11 -8 4 -13
1 -13 -8 0 -9 -4 -16 -9 -16 -6 0 -8 -9 -6 -21 4 -18 2 -19 -11 -8 -8 7 -14 8
-13 3 4 -23 -2 -45 -11 -39 -5 3 -10 -1 -10 -9 0 -9 -6 -16 -12 -16 -9 0 -8
-4 2 -10 13 -8 12 -10 -3 -10 -9 0 -16 -6 -15 -12 2 -7 -3 -12 -11 -10 -12 3
-12 0 -1 -13 11 -13 10 -15 -3 -10 -8 4 -18 1 -23 -6 -5 -8 -3 -10 7 -4 8 5
-3 -9 -23 -30 -21 -21 -38 -45 -38 -52 0 -8 -5 -11 -12 -7 -7 5 -9 2 -6 -7 5
-12 -21 -49 -29 -41 -2 1 -6 2 -10 2 -5 0 -1 -5 7 -10 13 -8 12 -10 -3 -10
-11 0 -15 -4 -11 -12 5 -8 2 -9 -11 -4 -15 5 -16 4 -6 -8 9 -11 8 -14 -5 -12
-9 0 -21 -6 -27 -15 -9 -14 8 -36 102 -128 72 -71 117 -108 126 -105 8 4 12
10 9 15 -3 5 0 9 7 9 7 0 9 3 6 7 -9 9 13 34 24 27 5 -3 9 0 9 6 0 6 5 8 10 5
6 -3 10 1 10 10 0 12 5 15 16 11 14 -5 15 -4 5 8 -10 12 -8 16 9 21 13 4 19
12 16 20 -3 10 0 12 12 8 9 -3 14 -3 10 2 -4 4 9 22 28 41 22 20 33 38 28 45
-4 7 -3 10 2 7 5 -3 15 0 22 8 10 11 10 14 0 14 -9 0 -9 3 2 9 8 6 18 7 24 4
5 -4 7 1 3 10 -4 10 5 28 24 48 16 17 29 35 29 39 0 4 7 10 15 14 9 3 12 12 8
22 -4 11 -3 15 5 10 6 -3 14 -1 18 5 4 8 3 9 -4 5 -7 -4 -12 -1 -12 8 0 9 6
15 13 14 6 -2 12 5 12 15 0 10 7 24 15 30 9 7 15 19 15 27 -1 8 7 23 17 33 10
10 18 26 18 36 0 10 10 23 23 30 16 8 17 10 3 6 -20 -6 -20 -6 0 16 12 14 13
19 4 14 -8 -4 -5 2 8 14 22 22 30 37 14 27 -5 -3 -9 1 -9 8 0 7 7 13 16 12 11
-1 15 9 15 36 0 21 4 34 10 31 5 -4 7 1 3 11 -6 14 -3 17 9 12 14 -5 15 -4 5
8 -9 11 -8 15 5 20 13 5 14 9 4 21 -7 9 -8 15 -2 15 5 0 13 7 16 16 3 8 2 13
-2 10 -5 -3 -9 1 -9 8 0 8 6 12 13 9 6 -2 15 1 20 8 5 8 3 10 -6 4 -10 -6 -12
-4 -7 7 3 9 0 21 -6 28 -9 10 -9 11 1 6 7 -5 12 -1 12 9 0 9 4 14 8 11 5 -3 9
2 9 10 0 9 -6 13 -16 9 -14 -5 -14 -4 0 7 16 13 19 19 19 39 0 5 4 8 8 5 4 -2
8 4 8 15 0 10 -3 19 -6 19 -4 0 -7 7 -7 15 0 9 6 14 14 11 8 -3 11 -1 8 5 -4
5 -1 18 6 27 11 13 9 13 -8 -2 l-22 -18 12 33 c7 19 17 37 22 41 6 5 5 8 -2 8
-7 0 -13 5 -13 11 0 5 6 7 13 3 7 -5 6 0 -3 11 -8 10 -10 16 -3 12 15 -9 14
32 -1 52 -8 11 -8 13 2 7 11 -6 13 43 11 268 -1 152 -5 276 -9 276 -4 0 -11 7
-14 16 -6 14 -4 15 9 4 14 -12 15 -11 4 13 -7 15 -16 24 -20 21 -5 -3 -6 2 -3
10 3 9 10 13 15 10 5 -3 6 2 3 10 -3 9 -9 16 -13 16 -4 0 -8 17 -9 38 -2 20
-7 39 -13 40 -6 3 -6 9 2 18 8 10 7 17 -5 30 -9 8 -14 20 -10 25 8 13 -6 70
-15 64 -5 -2 -7 7 -5 20 1 14 -1 23 -6 20 -4 -3 -10 2 -14 10 -3 8 0 15 6 15
7 0 6 5 -2 15 -6 8 -9 18 -6 23 3 5 -3 18 -14 30 -14 14 -16 22 -7 25 7 3 4 6
-5 6 -10 1 -18 6 -18 12 0 5 4 7 10 4 6 -3 7 1 4 10 -4 9 -13 14 -22 10 -12
-4 -12 -3 -3 9 9 11 9 15 0 18 -7 2 -14 15 -16 28 -2 13 -7 27 -11 30 -4 3 -8
14 -10 25 -2 11 -10 25 -19 32 -8 6 -12 16 -8 22 3 6 1 11 -5 11 -7 0 -10 7
-6 15 3 8 2 14 -2 14 -19 -3 -25 2 -12 11 13 8 12 10 -3 10 -10 0 -15 5 -12
10 3 6 1 10 -5 10 -6 0 -8 5 -5 10 3 6 -1 10 -10 10 -9 0 -13 5 -10 10 3 6 -1
13 -9 16 -9 3 -14 10 -11 14 8 13 -6 40 -18 33 -6 -4 -8 0 -4 10 4 10 2 16 -6
14 -6 -1 -13 8 -15 21 -2 15 -9 22 -17 18 -9 -3 -12 0 -9 9 3 7 -5 24 -18 37
-13 13 -22 26 -20 31 1 4 -8 7 -20 7 -19 0 -20 2 -8 10 11 7 11 10 2 10 -7 0
-10 4 -7 10 4 6 -1 7 -12 3 -16 -6 -16 -5 -4 10 12 15 12 17 -3 11 -10 -4 -18
0 -22 10 -3 9 -10 13 -15 10 -5 -3 -6 2 -3 10 4 11 0 16 -11 16 -12 0 -16 6
-12 19 3 13 0 18 -8 15 -7 -3 -15 2 -19 11 -3 10 -13 15 -21 12 -9 -4 -12 -1
-8 9 3 7 0 14 -7 14 -6 0 -8 5 -5 10 10 17 -2 11 -33 -15z m523 -745 c3 -6 -1
-7 -9 -4 -18 7 -21 14 -7 14 6 0 13 -4 16 -10z"/>
<path d="M1185 5430 c3 -5 1 -10 -5 -10 -6 0 -8 -4 -5 -10 3 -5 0 -10 -8 -10
-8 0 -18 -7 -21 -16 -3 -8 -10 -12 -16 -9 -6 3 -7 -1 -4 -9 4 -11 0 -16 -11
-16 -9 0 -14 -4 -11 -9 3 -5 -1 -12 -10 -15 -8 -3 -12 -11 -9 -16 4 -6 1 -9
-7 -8 -7 2 -12 -2 -11 -9 2 -6 -10 -22 -25 -35 -16 -13 -26 -30 -24 -37 3 -9
0 -11 -7 -6 -8 4 -14 -1 -18 -14 -3 -11 -9 -18 -14 -15 -5 3 -9 -4 -9 -14 0
-21 -23 -46 -33 -36 -3 3 -4 -2 -3 -13 2 -10 -6 -24 -18 -31 -20 -12 -20 -13
-1 -8 19 6 19 5 3 -8 -10 -7 -18 -18 -18 -24 0 -6 -5 -14 -12 -18 -7 -5 -8 -3
-3 6 5 8 4 11 -3 7 -5 -4 -9 -18 -7 -32 2 -20 -1 -23 -11 -15 -9 9 -12 5 -10
-14 2 -14 0 -25 -3 -24 -19 2 -24 -4 -11 -12 13 -8 12 -10 -3 -10 -10 0 -15
-4 -12 -10 3 -5 2 -10 -3 -10 -6 0 -13 -7 -16 -16 -6 -15 -4 -15 11 -3 15 12
15 11 -1 -13 -10 -16 -22 -28 -26 -28 -4 0 -11 -7 -14 -16 -6 -15 -4 -15 11
-3 10 7 7 1 -7 -15 -14 -15 -24 -37 -22 -48 2 -11 -1 -18 -6 -14 -6 3 -13 -1
-16 -10 -4 -9 -2 -13 5 -8 7 4 10 1 7 -7 -3 -8 -11 -13 -18 -11 -11 3 -11 0
-1 -12 11 -13 10 -17 -3 -22 -9 -3 -16 -10 -16 -16 0 -5 6 -6 13 -3 6 4 4 0
-5 -8 -10 -8 -15 -17 -11 -20 3 -4 -2 -18 -12 -33 -9 -15 -13 -24 -7 -20 5 3
13 -1 16 -10 3 -8 2 -12 -4 -9 -6 3 -10 1 -10 -4 0 -6 -8 -11 -17 -11 -15 0
-16 -2 -3 -10 12 -8 13 -11 1 -19 -9 -6 -10 -11 -3 -15 6 -4 9 -13 6 -21 -4
-8 -10 -12 -15 -9 -5 3 -9 0 -9 -5 0 -6 6 -11 13 -11 8 0 8 -3 1 -8 -13 -9
-27 -45 -14 -37 6 3 7 -1 4 -9 -3 -9 -11 -16 -18 -16 -6 0 -4 -5 4 -10 12 -8
12 -10 1 -10 -10 0 -11 -3 -2 -14 8 -10 8 -16 -2 -25 -8 -6 -18 -7 -23 -3 -4
4 -3 0 4 -9 6 -9 8 -20 4 -24 -4 -5 -1 -5 6 -1 7 4 9 12 6 18 -4 7 -2 8 5 4 8
-6 9 -12 2 -20 -6 -7 -8 -16 -4 -20 4 -4 0 -4 -10 0 -22 8 -22 -5 1 -22 13
-11 14 -13 1 -9 -10 4 -16 0 -16 -10 0 -8 5 -15 10 -15 5 0 4 -6 -2 -14 -17
-20 -15 -499 2 -489 8 5 8 2 -1 -9 -13 -16 -12 -44 2 -67 6 -9 5 -12 -2 -7 -6
4 -10 -1 -9 -13 1 -15 5 -17 13 -10 9 8 11 4 7 -13 -3 -13 -10 -28 -15 -35 -7
-8 -3 -10 14 -6 23 5 23 5 3 -11 -11 -10 -15 -15 -9 -12 17 8 25 -19 11 -34
-9 -10 -9 -11 0 -6 16 9 17 -6 2 -21 -8 -8 -5 -15 11 -26 14 -9 17 -17 11 -22
-15 -9 -3 -27 12 -19 7 3 3 -2 -7 -10 -19 -15 -19 -16 -1 -16 10 0 15 -3 12
-7 -4 -3 -2 -12 4 -19 7 -8 7 -14 0 -19 -7 -4 -7 -11 2 -19 6 -8 16 -11 21 -8
5 3 6 0 2 -7 -5 -7 -15 -10 -25 -7 -12 5 -12 3 3 -9 10 -8 23 -12 28 -8 6 3 5
-4 -1 -16 -11 -20 -8 -25 14 -22 6 1 2 -5 -8 -13 -18 -14 -17 -14 2 -21 12 -3
19 -10 17 -14 -3 -4 -1 -13 4 -21 5 -9 4 -20 -3 -29 -9 -12 -9 -13 1 -7 7 4
12 1 12 -9 0 -9 5 -13 11 -9 8 4 9 0 4 -15 -4 -13 -2 -21 6 -21 8 0 8 -4 -1
-15 -11 -13 -10 -14 2 -10 9 4 18 -1 22 -10 3 -9 2 -13 -4 -10 -6 3 -7 -1 -4
-10 4 -9 13 -14 20 -11 8 3 11 0 7 -11 -3 -8 0 -19 8 -24 12 -7 12 -9 -1 -9
-9 -1 -5 -6 10 -15 14 -8 19 -14 13 -15 -8 0 -5 -8 7 -20 11 -11 20 -27 20
-35 0 -8 4 -15 10 -15 5 0 7 -7 4 -15 -4 -10 0 -15 11 -15 12 0 16 -6 12 -20
-3 -14 1 -24 15 -31 11 -6 17 -17 14 -24 -3 -8 3 -16 13 -20 9 -3 25 -21 34
-40 9 -20 24 -38 32 -41 8 -4 15 -11 15 -16 0 -6 8 -17 18 -25 9 -8 11 -11 3
-7 -9 5 -12 3 -7 -4 4 -7 14 -12 22 -12 8 0 13 -3 11 -7 -7 -11 19 -33 27 -25
4 3 4 -1 0 -11 -4 -12 -1 -17 11 -17 9 0 13 -4 10 -10 -3 -5 1 -10 10 -10 9 0
13 -4 10 -10 -3 -5 -2 -10 4 -10 5 0 13 -9 16 -21 4 -11 9 -18 12 -15 7 7 33
-19 33 -33 0 -17 221 208 225 229 2 11 1 19 -3 19 -26 -4 -34 2 -22 16 10 12
8 14 -8 10 -16 -3 -20 1 -17 16 2 11 0 17 -4 14 -5 -3 -12 2 -15 10 -3 8 -11
14 -17 13 -6 -2 -13 6 -15 17 -1 11 -12 27 -24 37 -14 11 -16 18 -8 21 9 4 7
6 -3 6 -9 1 -23 9 -30 19 -13 16 -13 16 6 2 20 -14 20 -14 1 7 -10 13 -22 20
-26 18 -5 -3 -6 4 -3 14 3 13 -2 21 -16 26 -12 3 -21 11 -21 16 0 6 6 7 13 3
6 -3 1 4 -13 17 -14 13 -20 20 -13 15 8 -5 16 -6 20 -2 3 3 2 6 -3 6 -5 0 -20
10 -34 21 -21 17 -22 20 -5 14 16 -5 15 -1 -8 20 -15 14 -25 30 -22 36 4 5 1
9 -5 9 -6 0 -8 5 -5 10 3 6 -2 10 -12 10 -15 0 -16 2 -3 10 10 6 11 10 3 10
-7 0 -13 9 -13 20 0 11 -4 20 -10 20 -5 0 -10 5 -10 11 0 5 5 7 12 3 7 -4 8
-3 4 5 -4 6 -11 9 -16 6 -5 -3 -11 -1 -15 5 -3 5 0 10 7 10 11 0 11 2 0 9 -7
4 -12 12 -11 17 4 23 -2 36 -15 31 -10 -4 -12 0 -9 14 3 12 0 19 -8 19 -11 0
-11 2 1 10 10 6 11 10 3 10 -7 0 -13 7 -13 15 0 8 -5 15 -11 15 -8 0 -7 6 2
17 8 10 9 14 2 10 -6 -4 -14 -3 -18 3 -3 5 -1 10 6 10 7 0 5 8 -7 22 -10 12
-13 18 -6 14 6 -4 12 -2 12 3 0 10 -14 15 -33 12 -4 -1 -3 7 3 18 13 26 13 34
-1 25 -8 -5 -10 1 -7 20 3 15 1 26 -6 26 -6 0 -4 5 4 10 12 8 12 10 -5 10 -17
0 -17 2 -5 10 12 8 12 10 1 10 -11 0 -11 3 0 17 12 15 12 16 -4 10 -15 -6 -17
-3 -12 14 6 17 4 20 -6 13 -11 -6 -12 -4 -4 7 13 19 12 38 -5 69 -13 24 -12
24 5 10 17 -14 18 -14 6 8 -7 12 -16 20 -22 17 -5 -4 -9 -1 -9 4 0 6 7 11 16
11 13 0 14 3 5 13 -6 8 -8 17 -4 20 3 4 0 7 -8 7 -11 0 -11 2 1 10 10 6 11 10
3 10 -7 0 -13 5 -13 11 0 5 6 7 13 3 7 -5 7 -1 -2 10 -16 19 -22 68 -7 59 5
-4 7 1 3 10 -4 10 -10 25 -14 34 -5 13 -2 15 13 10 18 -7 18 -6 2 6 -10 8 -16
16 -14 18 8 10 15 69 7 64 -13 -7 0 39 13 47 8 5 7 8 -1 8 -6 0 -11 9 -10 20
1 11 5 20 10 20 5 0 7 9 4 20 -4 14 0 20 11 20 12 1 10 5 -8 16 -14 8 -17 13
-7 10 9 -3 17 -2 18 2 0 4 2 15 4 25 2 9 0 15 -4 13 -4 -3 -7 4 -7 15 0 12 5
18 13 14 11 -3 11 0 2 16 -8 16 -8 24 1 33 8 8 10 6 5 -9 -5 -17 -5 -17 4 -4
6 9 9 26 6 38 -2 11 0 21 4 21 5 0 6 11 3 25 -2 15 0 25 7 25 6 0 11 6 11 14
0 7 7 19 15 26 13 11 13 14 -2 26 -14 10 -14 13 -4 14 8 0 11 3 8 7 -4 3 1 12
11 20 9 8 11 12 5 8 -7 -3 -13 -1 -13 4 0 6 4 11 9 11 6 0 8 9 6 19 -3 15 0
18 13 14 15 -6 16 -5 2 12 -11 14 -11 17 -1 11 10 -7 12 -3 6 14 -6 18 -4 22
8 17 12 -4 14 -2 10 10 -4 9 1 21 12 29 11 8 13 14 6 14 -7 0 -9 5 -6 10 4 6
12 7 18 3 7 -4 6 0 -2 10 -13 17 -8 21 19 19 3 0 6 8 6 18 0 10 -4 16 -8 14
-4 -3 -5 2 -2 10 3 9 11 13 17 9 6 -4 8 0 4 10 -3 9 0 18 9 21 8 3 14 15 14
26 0 11 7 23 15 26 8 4 13 10 10 14 -3 5 1 15 9 23 8 8 12 17 9 21 -4 3 -2 6
4 6 6 0 14 11 17 25 4 14 10 23 15 20 11 -6 23 23 16 36 -4 5 2 6 11 2 10 -4
15 -2 11 3 -8 13 9 39 25 39 7 0 14 10 16 23 2 13 8 20 14 16 7 -4 8 -2 4 4
-4 7 7 26 26 44 18 18 33 36 33 41 0 4 11 17 25 27 l25 19 -56 53 c-142 135
-178 168 -189 168 -6 0 -8 -4 -5 -10z m-405 -630 c0 -5 -5 -10 -11 -10 -5 0
-7 5 -4 10 3 6 8 10 11 10 2 0 4 -4 4 -10z m206 -358 c-18 -16 -18 -16 -6 6 6
13 14 21 18 18 3 -4 -2 -14 -12 -24z m-316 -968 c0 -8 -19 -13 -24 -6 -3 5 1
9 9 9 8 0 15 -2 15 -3z"/>
<path d="M3692 4907 l-72 -73 34 -36 c18 -19 45 -52 58 -72 14 -20 28 -33 33
-28 4 4 6 -1 2 -10 -3 -9 0 -19 9 -22 8 -3 14 -13 14 -21 0 -9 5 -13 10 -10 6
3 10 -3 10 -14 0 -12 5 -21 10 -21 6 0 10 -7 10 -15 0 -8 5 -15 11 -15 5 0 7
-4 4 -10 -3 -5 -1 -10 5 -10 6 0 8 -4 5 -10 -3 -5 -2 -10 3 -10 9 0 25 -37 23
-52 -1 -5 3 -8 9 -8 6 0 10 -3 9 -7 -2 -16 14 -53 22 -53 5 0 9 -5 9 -11 0 -5
-6 -7 -12 -3 -9 6 -9 3 0 -9 8 -9 11 -21 7 -27 -4 -6 -1 -9 6 -8 12 3 32 -49
24 -63 -3 -4 -1 -9 4 -11 5 -1 11 -16 13 -33 1 -16 10 -36 18 -43 13 -12 12
-13 -4 -7 -18 5 -19 4 -5 -12 8 -10 15 -29 14 -43 0 -14 4 -28 9 -32 6 -4 5
-12 -3 -21 -9 -11 -9 -17 -1 -22 6 -4 9 -14 6 -22 -3 -8 -2 -12 2 -9 11 6 8
-156 -2 -173 -7 -10 -5 -12 5 -6 12 8 12 6 0 -8 -7 -9 -11 -23 -8 -31 3 -7 0
-19 -6 -26 -9 -10 -9 -11 3 -5 13 8 13 6 2 -8 -8 -9 -11 -20 -8 -25 3 -5 -1
-21 -9 -36 -8 -15 -9 -24 -3 -20 7 5 8 3 2 -7 -10 -16 -11 -20 -13 -55 0 -14
-5 -22 -11 -19 -6 3 -7 -1 -4 -9 3 -9 1 -16 -5 -16 -6 0 -8 -6 -5 -13 3 -8 -2
-19 -10 -26 -8 -7 -12 -19 -9 -27 3 -8 0 -20 -6 -28 -6 -7 -8 -16 -4 -19 3 -4
1 -7 -5 -7 -6 0 -13 -14 -17 -30 -4 -17 -11 -28 -16 -25 -5 4 -6 0 -3 -8 3 -8
-2 -19 -10 -26 -8 -7 -12 -20 -9 -28 4 -10 2 -14 -4 -10 -6 4 -15 -5 -21 -21
-5 -16 -17 -36 -27 -45 -9 -9 -14 -17 -10 -17 4 0 -1 -7 -9 -16 -9 -8 -13 -21
-9 -27 3 -7 3 -9 -1 -5 -10 8 -36 -19 -56 -56 -8 -16 -25 -35 -37 -44 -13 -8
-23 -21 -23 -29 0 -8 -4 -12 -9 -9 -5 3 -11 -1 -14 -9 -6 -15 115 -146 146
-158 10 -4 16 -3 13 1 -2 4 11 23 30 41 19 19 34 38 34 43 0 5 5 6 10 3 6 -3
10 -2 10 4 0 6 13 24 29 40 16 16 27 32 24 35 -3 3 2 8 11 12 9 3 16 12 16 20
0 8 3 14 8 14 9 0 46 62 44 73 -1 4 3 7 9 7 5 0 7 5 4 10 -3 6 1 10 9 10 9 0
15 3 15 8 -4 21 2 32 13 26 8 -5 9 -2 5 9 -3 10 -2 17 4 17 6 0 8 4 4 9 -3 5
2 17 11 25 8 9 12 16 8 16 -3 0 -1 7 6 15 6 8 9 19 5 25 -3 5 -2 10 4 10 8 0
23 29 26 50 0 3 4 11 8 18 5 7 3 12 -5 12 -7 0 -2 7 10 16 17 12 20 19 12 29
-7 9 -6 16 5 25 8 7 13 15 10 19 -2 4 2 20 10 35 8 14 10 24 5 21 -6 -4 -10
-1 -10 4 0 6 4 11 8 11 4 0 8 15 8 33 0 17 5 31 10 30 6 -1 11 4 11 12 0 8 -3
12 -7 10 -4 -2 -7 9 -6 24 1 16 4 27 7 25 4 -2 7 80 8 183 0 137 -3 189 -12
195 -9 6 -9 8 1 8 9 0 10 5 2 19 -7 14 -6 21 3 24 9 4 9 6 -1 6 -7 1 -10 6 -7
11 3 6 0 10 -7 10 -9 0 -9 3 2 10 8 5 10 10 5 10 -6 0 -12 10 -12 23 -2 29 -7
49 -16 65 -5 7 -3 12 5 12 10 0 10 2 -1 9 -7 5 -10 14 -7 20 4 6 2 11 -4 11
-6 0 -9 4 -5 9 3 5 1 12 -5 16 -6 4 -8 11 -5 16 4 5 0 9 -7 9 -10 0 -9 3 2 10
12 8 12 10 -3 16 -9 3 -17 14 -17 24 0 10 -7 30 -14 46 -8 15 -13 31 -10 36 3
4 2 8 -3 8 -9 0 -39 61 -35 73 1 4 -2 7 -8 7 -5 0 -10 7 -10 15 0 8 -5 15 -12
15 -6 0 -9 3 -5 6 3 4 -1 13 -9 21 -8 8 -12 19 -9 24 4 5 0 9 -7 9 -7 0 -22
18 -32 40 -10 22 -23 37 -27 34 -5 -3 -6 2 -3 10 4 11 0 16 -11 16 -9 0 -14 4
-11 9 3 5 -1 12 -10 15 -9 3 -12 11 -8 18 4 7 4 10 -1 6 -7 -7 -35 14 -35 26
0 8 -72 76 -80 76 -3 0 -38 -33 -78 -73z"/>
<path d="M1685 4939 c-4 -11 -9 -18 -12 -16 -6 7 -38 -25 -46 -46 -3 -9 -11
-17 -17 -17 -5 0 -10 -7 -10 -16 0 -8 -4 -12 -10 -9 -5 3 -10 -1 -10 -9 0 -9
-4 -16 -10 -16 -5 0 -10 -5 -10 -11 0 -6 -7 -17 -15 -26 -8 -8 -13 -19 -10
-24 4 -5 -1 -9 -10 -9 -9 0 -13 -4 -10 -10 3 -5 1 -10 -4 -10 -6 0 -11 -7 -11
-15 0 -8 -4 -15 -10 -15 -5 0 -9 -3 -8 -7 3 -15 -14 -43 -23 -37 -5 3 -6 -2
-3 -10 3 -9 1 -16 -6 -16 -6 0 -9 -4 -6 -9 3 -5 0 -14 -8 -20 -8 -7 -17 -27
-20 -46 -4 -19 -12 -35 -18 -35 -5 0 -8 -7 -5 -15 4 -8 2 -17 -4 -21 -6 -3 -8
-13 -5 -21 3 -8 1 -11 -4 -8 -9 5 -14 -16 -13 -52 1 -7 -3 -10 -8 -7 -8 5 -14
-18 -10 -40 1 -4 -4 -14 -10 -22 -9 -11 -9 -14 0 -14 7 0 9 -5 6 -10 -4 -6
-10 -8 -14 -6 -4 3 -7 -17 -6 -44 1 -29 -3 -46 -8 -43 -6 4 -8 -5 -5 -20 3
-15 2 -24 -2 -22 -4 3 -8 -100 -8 -228 0 -202 2 -235 16 -251 11 -13 12 -17 3
-11 -10 6 -12 4 -5 -6 9 -15 12 -25 18 -74 8 -51 18 -75 30 -68 7 3 6 1 -1 -7
-10 -11 -9 -17 4 -32 12 -14 13 -18 3 -18 -9 0 -7 -5 6 -16 10 -8 13 -13 6 -9
-7 4 -5 -8 7 -28 11 -19 17 -38 14 -41 -4 -3 -1 -6 6 -6 7 0 10 -4 6 -9 -3 -5
0 -13 6 -16 5 -4 8 -13 5 -21 -3 -8 -1 -14 5 -14 10 0 44 -69 41 -83 -2 -5 2
-6 7 -3 9 6 23 -21 19 -34 -1 -3 10 -18 25 -34 14 -15 29 -37 32 -47 4 -11 11
-19 16 -19 6 0 7 -4 4 -10 -3 -5 -1 -10 5 -10 12 0 49 -32 40 -35 -9 -3 59
-75 70 -75 6 0 9 -4 5 -9 -3 -5 -1 -12 4 -15 5 -4 44 28 86 69 66 65 74 78 65
95 -6 11 -19 24 -31 30 -11 6 -17 15 -14 19 3 5 -2 12 -11 15 -8 3 -12 10 -9
16 3 5 -1 10 -10 10 -9 0 -13 5 -10 10 3 6 1 10 -5 10 -6 0 -8 5 -5 10 3 6 0
10 -7 10 -7 0 -22 18 -32 40 -11 22 -23 40 -28 40 -5 0 -6 5 -2 12 4 6 -1 17
-11 25 -11 7 -15 13 -11 13 4 0 0 7 -8 16 -9 8 -14 20 -11 25 4 5 1 9 -5 9 -7
0 -9 7 -6 15 3 9 -1 18 -9 21 -8 4 -12 10 -9 15 3 5 0 9 -5 9 -6 0 -10 3 -9 8
4 19 -15 61 -26 55 -6 -4 -5 1 3 10 7 9 10 17 5 17 -5 0 -14 11 -21 25 -6 14
-8 23 -3 20 4 -2 1 14 -7 38 -14 39 -18 55 -26 112 -1 11 -7 26 -11 34 -7 10
-5 12 5 6 11 -6 11 -5 2 5 -6 7 -9 19 -6 28 4 10 2 13 -5 8 -7 -4 -12 -2 -12
3 0 6 5 11 11 11 8 0 8 4 0 14 -9 10 -9 16 -1 21 7 4 8 11 2 18 -6 7 -8 41 -6
77 6 100 8 114 19 122 6 5 5 8 -4 8 -9 0 -10 4 -4 13 10 11 13 27 14 70 0 9 4
15 8 12 5 -2 7 7 5 20 -1 14 1 25 6 25 4 0 7 8 7 18 0 34 3 43 12 37 6 -3 8 4
6 15 -5 25 4 52 14 45 4 -2 7 10 6 26 -1 18 4 33 12 36 7 3 13 9 13 13 0 5 5
21 11 37 6 15 10 30 9 32 -1 2 5 8 14 13 9 5 14 13 11 19 -4 5 -1 9 5 9 7 0
10 6 7 13 -3 7 3 19 14 25 12 8 16 18 12 29 -4 9 -2 14 3 11 10 -7 28 11 32
32 2 8 11 22 22 31 11 9 17 18 15 21 -3 2 16 26 41 52 l45 48 -77 74 c-42 41
-81 74 -85 74 -4 0 -11 -9 -14 -21z"/>
<path d="M3292 4512 c-48 -45 -50 -52 -21 -78 24 -22 87 -114 109 -159 8 -16
19 -36 24 -43 5 -8 11 -21 13 -30 1 -10 12 -51 23 -92 22 -77 33 -230 18 -230
-5 0 -7 -3 -4 -8 5 -8 -17 -127 -24 -127 -1 0 -3 -7 -5 -15 -5 -28 -47 -120
-54 -120 -4 0 -13 -16 -21 -35 -8 -19 -17 -35 -22 -35 -4 0 -8 -5 -8 -11 0 -6
-6 -16 -12 -23 -31 -32 -68 -76 -68 -82 0 -3 19 -23 41 -45 l42 -40 45 48 c74
79 172 243 172 286 0 7 5 18 12 25 7 7 9 12 6 12 -3 0 1 26 8 58 14 57 14 327
1 381 -20 78 -89 233 -119 265 -10 11 -18 23 -18 27 0 4 -22 30 -48 58 l-48
51 -42 -38z"/>
<path d="M2110 4489 c-44 -52 -100 -135 -100 -149 0 -5 -5 -10 -11 -10 -5 0
-8 -4 -4 -9 3 -5 1 -12 -5 -16 -5 -3 -10 -15 -10 -26 0 -10 -4 -19 -10 -19 -5
0 -9 -3 -8 -7 2 -9 -12 -64 -20 -78 -16 -28 -24 -335 -11 -400 31 -146 104
-289 197 -383 l22 -23 40 40 c22 22 40 44 40 48 0 5 -11 20 -25 35 -14 15 -25
30 -25 34 0 4 -6 15 -14 23 -16 18 -88 151 -82 151 2 0 -4 23 -15 50 -10 28
-16 50 -13 50 4 0 1 6 -5 13 -6 8 -8 16 -5 20 3 3 0 15 -6 27 -9 17 -9 21 0
15 9 -5 10 -2 3 11 -5 11 -9 42 -8 69 3 62 24 188 33 195 4 3 8 13 10 24 9 51
122 246 156 268 11 7 -65 88 -82 88 -4 0 -23 -19 -42 -41z"/>
<path d="M2650 4254 c-179 -48 -269 -234 -206 -423 14 -39 34 -69 76 -110 l57
-56 -33 -90 c-19 -49 -36 -102 -40 -117 -4 -16 -10 -28 -14 -28 -3 0 -7 -6 -7
-12 0 -11 -66 -201 -123 -353 -10 -27 -48 -131 -84 -230 -35 -99 -86 -238
-112 -310 -25 -71 -47 -136 -47 -142 0 -7 -4 -13 -9 -13 -4 0 -8 -6 -8 -14 0
-7 -30 -94 -66 -192 -36 -99 -72 -197 -79 -219 -18 -54 -84 -236 -92 -255 -3
-8 -7 -18 -8 -22 -2 -5 -3 -9 -5 -10 -1 -2 -3 -10 -5 -18 -2 -8 -15 -45 -29
-82 -14 -38 -22 -68 -18 -68 4 0 1 -4 -6 -8 -7 -5 -14 -19 -17 -32 -6 -31 -36
-112 -48 -127 -5 -7 -6 -13 -2 -13 4 0 3 -6 -2 -12 -5 -7 -20 -47 -33 -88 -13
-41 -26 -79 -30 -85 -4 -5 -13 -28 -20 -50 -7 -22 -16 -45 -21 -51 -5 -6 -6
-14 -2 -17 3 -4 1 -12 -4 -19 -5 -7 -20 -42 -32 -78 -12 -36 -26 -74 -31 -85
-5 -11 -19 -51 -32 -90 -13 -38 -25 -72 -28 -75 -3 -3 -6 -12 -8 -20 -4 -15
-111 -315 -163 -453 -34 -93 -35 -106 -9 -139 15 -19 27 -25 51 -23 43 4 62
28 92 115 15 41 45 125 67 185 23 61 43 118 45 127 2 9 9 26 15 37 6 12 8 21
4 21 -3 0 -2 6 3 13 6 6 20 39 31 72 11 33 32 92 46 130 l27 70 522 523 522
522 527 -527 c290 -290 525 -531 522 -535 -3 -5 0 -7 7 -6 8 2 24 -26 41 -67
47 -119 100 -269 101 -287 1 -10 5 -18 9 -18 4 0 8 -6 8 -14 0 -7 9 -35 19
-62 11 -27 37 -96 57 -154 21 -58 45 -113 55 -124 18 -19 79 -30 79 -14 0 5 4
7 9 4 9 -6 21 15 27 47 2 10 -5 43 -17 75 -11 31 -21 62 -23 69 -1 7 -5 16 -9
19 -4 4 -7 14 -7 22 0 8 -6 28 -14 45 -8 18 -22 52 -30 77 -16 47 -66 185 -85
233 -6 15 -8 27 -5 27 4 0 1 6 -5 13 -6 8 -19 40 -30 73 -10 32 -24 70 -30 84
-11 26 -51 136 -121 335 -23 66 -47 131 -53 145 -5 14 -12 34 -14 45 -2 11 -8
24 -13 29 -6 6 -10 18 -10 28 0 10 -4 26 -9 36 -5 9 -19 44 -31 77 -12 33 -25
69 -29 80 -13 33 -32 89 -34 100 -1 6 -4 12 -7 15 -3 3 -16 39 -29 80 -14 41
-28 80 -31 85 -4 6 -17 42 -29 80 -13 39 -26 79 -30 90 -5 11 -13 32 -19 47
-6 15 -23 62 -38 105 -15 43 -31 89 -37 103 -6 14 -11 28 -12 33 -2 4 -3 8 -5
10 -1 1 -3 9 -5 17 -2 8 -18 53 -35 100 -18 47 -49 132 -70 190 -21 58 -57
157 -80 220 -23 63 -48 133 -55 155 -24 72 -56 160 -64 180 -5 11 -18 45 -29
75 -11 30 -28 78 -38 105 -10 28 -19 55 -21 60 -1 6 -16 48 -34 95 -52 142
-52 137 -18 161 80 56 131 194 111 299 -14 76 -36 122 -81 169 -48 49 -84 71
-145 87 -64 17 -106 17 -176 -2z m136 -651 c4 -16 11 -34 17 -40 5 -7 6 -13 2
-13 -4 0 -2 -7 5 -15 7 -8 9 -15 5 -15 -4 0 -2 -6 4 -13 6 -8 12 -22 14 -33 2
-10 11 -37 21 -59 9 -21 18 -46 20 -55 2 -8 6 -23 11 -33 4 -10 5 -21 1 -24
-9 -9 -275 -10 -289 -1 -8 5 -8 8 2 8 8 0 12 2 9 5 -5 6 44 154 59 178 4 7 8
17 8 22 0 6 8 34 18 63 18 49 21 52 53 52 28 0 35 -4 40 -27z m99 -405 c3 -3
-25 -35 -62 -71 l-68 -66 -67 67 c-37 37 -67 69 -68 72 0 7 258 5 265 -2z
m-259 -140 l62 -64 -55 -57 c-30 -31 -56 -57 -57 -57 -2 0 -49 -46 -105 -102
l-101 -103 36 100 c20 55 41 116 46 135 6 19 14 40 19 46 5 6 10 19 12 30 5
23 15 53 26 74 5 9 12 30 16 48 8 40 19 35 101 -50z m354 6 c8 -27 19 -54 23
-61 4 -7 14 -32 21 -55 7 -24 30 -88 50 -143 l37 -99 -141 139 c-77 77 -140
144 -140 150 1 12 67 85 78 85 4 0 13 9 20 21 19 30 35 19 52 -37z m216 -597
c6 -27 -8 -43 -227 -263 l-233 -234 -229 229 -229 228 15 29 c9 16 86 98 171
183 86 85 156 158 156 163 0 4 3 8 8 8 4 0 34 27 67 60 l60 59 217 -217 c141
-142 219 -227 224 -245z m58 -158 c2 -8 6 -21 9 -29 4 -8 16 -42 27 -75 12
-33 25 -69 30 -80 10 -23 23 -58 25 -65 5 -19 29 -87 34 -95 3 -5 6 -14 6 -20
1 -5 4 -17 8 -25 3 -8 23 -60 42 -115 20 -55 41 -112 47 -127 5 -15 9 -28 8
-30 -1 -2 10 -29 24 -62 14 -32 26 -66 26 -76 0 -9 3 -20 8 -24 4 -4 7 -11 8
-14 0 -4 6 -20 13 -37 14 -35 50 -133 56 -155 3 -8 16 -46 30 -85 13 -38 25
-71 25 -72 0 -2 0 -6 1 -10 0 -5 4 -12 9 -18 10 -13 35 -90 29 -91 -2 0 2 -9
10 -20 8 -10 -198 192 -457 451 l-472 470 217 217 c121 121 221 214 226 209 5
-5 10 -15 11 -22z m-791 -197 l207 -207 -455 -455 c-446 -446 -455 -454 -435
-400 12 30 25 64 30 75 5 11 18 47 29 80 11 33 36 105 57 160 20 55 39 110 41
123 3 12 9 25 14 28 5 3 9 11 9 19 0 8 5 26 12 42 6 15 12 33 14 38 1 6 16 48
34 95 18 47 33 90 34 95 1 6 4 15 7 20 4 6 14 35 24 65 10 30 22 61 28 68 5 6
6 12 3 12 -4 0 -4 6 1 13 4 6 8 14 9 17 0 3 3 12 6 20 18 46 21 57 25 74 2 11
7 24 12 30 4 6 14 32 21 59 7 26 17 50 21 53 5 3 9 11 9 19 0 21 19 65 27 65
5 0 101 -94 216 -208z"/>
<path d="M4295 2460 c-3 -5 -1 -10 4 -10 6 0 11 5 11 10 0 6 -2 10 -4 10 -3 0
-8 -4 -11 -10z"/>
</g>
</svg>
